# xmcd CD database file
#
# Track frame offsets:
#	150
#	21005
#	43712
#	62050
#	89575
#	110740
#	131490
#	163780
#	192205
#	227730
#	266995
#
# Disc length: 3870 seconds
#
# Revision: 0
# Processed by: cddbd v1.4PL0 Copyright (c) Steve Scherf et al.
# Submitted via: CDex 1.50
#
DISCID=9c0f1c0b
DTITLE=Various Artist - Finnish Jazz '95
DYEAR=1995
DGENRE=Jazz
TTITLE0=XL - Milou
TTITLE1=Pekka Toivanen - Left-handed
TTITLE2=Splash of colors - Splash of colors
TTITLE3=Perko-Pyysalo Poppoo - Bangladesh
TTITLE4=RinneRadio - TeoTeo
TTITLE5=Dialog - Birdsong
TTITLE6=Jimi Sumen - Berperest Brou
TTITLE7=UMO Jazz Orchestra - For sale
TTITLE8=Trio Töykeät - Dedication
TTITLE9=Zone - First Definition
TTITLE10=Krakatau - Opening
EXTD=YEAR: 1995
EXTT0=
EXTT1=
EXTT2=
EXTT3=
EXTT4=
EXTT5=
EXTT6=
EXTT7=
EXTT8=
EXTT9=
EXTT10=
PLAYORDER=
